<?xml version="1.0" standalone="no"?>
<!DOCTYPE svg PUBLIC "-//W3C//DTD SVG 20010904//EN"
 "http://www.w3.org/TR/2001/REC-SVG-20010904/DTD/svg10.dtd">
<svg version="1.0" xmlns="http://www.w3.org/2000/svg"
 width="700.000000pt" height="700.000000pt" viewBox="0 0 700.000000 700.000000"
 preserveAspectRatio="xMidYMid meet">
<metadata>
Created by potrace 1.11, written by Peter Selinger 2001-2013
</metadata>
<g transform="translate(0.000000,700.000000) scale(0.100000,-0.100000)"
fill="#000000" stroke="none">
<path d="M1859 6975 c0 -5 -2 -1132 -2 -2504 l-2 -2493 -93 -49 c-127 -67
-211 -129 -310 -228 -187 -189 -284 -412 -284 -657 0 -371 213 -692 593 -893
91 -48 267 -113 339 -125 19 -3 53 -10 74 -15 22 -5 141 -10 266 -11 247 -1
335 11 500 67 358 121 633 374 742 683 32 92 46 179 46 285 0 106 -11 186 -39
274 -64 203 -224 411 -414 537 -89 60 -141 88 -237 129 l-88 37 0 745 0 744
77 102 c43 56 83 109 90 117 25 31 317 417 346 458 17 23 34 42 37 42 3 0 232
-451 509 -1002 277 -552 507 -1007 513 -1013 6 -6 221 -10 603 -11 l595 0 -44
80 c-41 76 -55 102 -126 231 -34 62 -86 158 -135 250 -21 39 -45 84 -55 100
-10 17 -37 66 -60 110 -53 98 -96 177 -125 230 -22 38 -46 83 -123 225 -46 86
-159 293 -190 350 -13 25 -39 72 -57 105 -18 33 -45 83 -60 110 -15 28 -43 79
-63 115 -19 36 -46 85 -60 110 -14 25 -39 70 -55 100 -32 60 -80 149 -119 220
-14 25 -87 159 -162 297 l-138 253 59 76 c32 42 67 89 78 104 11 16 134 179
273 362 138 183 376 497 528 698 152 201 284 376 295 390 143 186 199 263 195
267 -3 3 -272 6 -597 6 -490 -1 -593 -3 -600 -14 -4 -8 -59 -84 -121 -170
-108 -150 -357 -495 -477 -662 -31 -42 -79 -108 -106 -145 -28 -37 -84 -114
-125 -172 -41 -58 -79 -110 -85 -117 -5 -6 -118 -162 -250 -347 -132 -184
-246 -335 -252 -335 -10 -1 -13 201 -13 979 0 539 -3 980 -7 981 -5 0 -250 1
-546 2 -352 1 -537 -1 -538 -8z m786 -5555 c22 -6 47 -12 55 -14 143 -36 301
-150 352 -255 32 -64 31 -158 -1 -224 -56 -115 -228 -228 -406 -267 -122 -27
-326 -22 -435 10 -230 67 -390 218 -390 370 0 180 217 349 505 394 48 7 276
-3 320 -14z"/>
</g>
</svg>
