<?xml version="1.0" encoding="utf-8"?>
<!-- (c) mapshakers 2015, Licence: CC0 1.0 Universal, www.mapshakers.com  -->
<!DOCTYPE svg PUBLIC "-//W3C//DTD SVG 1.1//EN" "http://www.w3.org/Graphics/SVG/1.1/DTD/svg11.dtd">
<svg version="1.1" id="library" xmlns="http://www.w3.org/2000/svg" xmlns:xlink="http://www.w3.org/1999/xlink" x="0px" y="0px"
	 width="256px" height="256px" viewBox="0 0 256 256" style="enable-background:new 0 0 256 256;" xml:space="preserve">
<style type="text/css">
<![CDATA[
	.st0{fill:#D1D1D1;}
	.st1{fill:#454545;}
]]>
</style>
<path class="st0" d="M219.343,53.472c-1.077-0.024-2.389-0.039-3.907-0.039c-14.143,0-60.169,1.031-86.675,13.637
	c-7.628-4.077-17.508-7.049-30-9.041c-12.501-1.992-27.587-3.002-44.838-3.002c-5.669,0-11.399,0.11-17.517,0.335
	c-9.386,0.346-16.739,7.975-16.739,17.368V200.03c0,9.109,7.12,16.727,16.211,17.341c3.473,0.233,8.013,0.356,13.269,0.499
	c13.913,0.378,55.892,1.518,66.013,9.436c1.503,1.635,3.276,2.946,5.283,3.903c2.325,1.111,4.914,1.697,7.488,1.697
	c0.022,0,0.116,0,0.139,0c2.292,0,4.531-0.445,6.651-1.324c1.832-0.759,3.498-1.813,4.968-3.137
	c8.581-5.721,33.015-9.901,72.698-12.432c3.13-0.2,5.833-0.372,7.955-0.543c8.968-0.718,15.992-8.327,15.992-17.324V70.848
	C236.334,61.476,228.711,53.681,219.343,53.472z"/>
<g>
	<path class="st1" d="M128.07,224.217c-2.261,0-4.484-0.883-6.146-2.545c-10.812-10.812-52.504-11.944-72.541-12.488
		c-5.169-0.141-9.633-0.262-12.921-0.483c-4.562-0.308-8.105-4.098-8.105-8.67V72.731c0-4.674,3.698-8.512,8.37-8.684
		c6.008-0.222,11.633-0.33,17.196-0.33c16.794,0,31.419,0.974,43.471,2.895c18.831,3,31.075,8.285,37.434,16.154
		c1.249,1.546,1.931,3.474,1.931,5.461v127.299c0,3.516-2.117,6.684-5.364,8.028C130.318,224,129.188,224.217,128.07,224.217z
		 M45.736,191.695c1.305,0.039,2.684,0.076,4.118,0.115c25.845,0.701,51.905,2.063,69.524,8.683V91.882
		c-5.171-3.917-20.645-10.785-65.456-10.785c-2.698,0-5.414,0.026-8.186,0.08V191.695z"/>
</g>
<g>
	<path class="st1" d="M127.931,224.217c-1.272,0-2.551-0.279-3.744-0.849c-3.021-1.443-4.945-4.494-4.945-7.842V88.228
		c0-2.305,0.916-4.515,2.545-6.144c18.997-18.998,81.343-19.96,93.648-19.96c1.443,0,2.689,0.013,3.712,0.036
		c4.723,0.105,8.497,3.964,8.497,8.688v127.299c0,4.53-3.48,8.301-7.996,8.662c-2.063,0.166-4.752,0.337-7.864,0.536
		c-17.787,1.134-65.034,4.147-78.391,14.941C131.817,223.56,129.882,224.217,127.931,224.217z M136.622,92.35v108.893
		c18.319-6.729,45.788-9.431,73.643-11.216V79.547C181.486,80.027,148.669,84.465,136.622,92.35z"/>
</g>
<g>
	<path class="st1" d="M149.893,154.013c-4.24,0-7.951-3.107-8.586-7.428c-0.698-4.748,2.586-9.163,7.334-9.86l46.716-6.862
		c4.744-0.696,9.164,2.587,9.86,7.335c0.697,4.748-2.586,9.163-7.335,9.86l-46.716,6.861
		C150.739,153.982,150.313,154.013,149.893,154.013z"/>
</g>
<g>
	<path class="st1" d="M150.903,183.916c-4.228,0-7.934-3.09-8.582-7.397c-0.714-4.746,2.555-9.172,7.301-9.886l44.963-6.765
		c4.742-0.716,9.171,2.555,9.886,7.301c0.714,4.745-2.555,9.172-7.301,9.886l-44.963,6.764
		C151.769,183.885,151.334,183.916,150.903,183.916z"/>
</g>
<g>
	<path class="st1" d="M104.01,149.106c-0.42,0-0.846-0.031-1.273-0.094l-46.716-6.862c-4.749-0.697-8.032-5.111-7.335-9.859
		c0.698-4.749,5.119-8.028,9.86-7.335l46.716,6.863c4.749,0.697,8.032,5.111,7.335,9.859
		C111.962,145.998,108.25,149.106,104.01,149.106z"/>
</g>
<g>
	<path class="st1" d="M104.01,178.674c-0.42,0-0.846-0.03-1.273-0.094l-46.716-6.861c-4.749-0.698-8.032-5.112-7.335-9.86
		c0.698-4.749,5.119-8.028,9.86-7.335l46.716,6.862c4.749,0.697,8.032,5.112,7.335,9.86
		C111.962,175.566,108.25,178.674,104.01,178.674z"/>
</g>
<g>
	<path class="st1" d="M103.134,120.659c-0.43,0-0.865-0.032-1.304-0.098l-44.963-6.764c-4.746-0.714-8.015-5.14-7.3-9.886
		c0.714-4.745,5.138-8.011,9.886-7.3l44.963,6.765c4.746,0.714,8.014,5.14,7.3,9.886
		C111.068,117.568,107.362,120.659,103.134,120.659z"/>
</g>
<g>
	<path class="st1" d="M151.838,124.05c-4.228,0-7.934-3.09-8.582-7.398c-0.714-4.746,2.554-9.172,7.301-9.886l44.963-6.764
		c4.745-0.71,9.172,2.554,9.886,7.3c0.714,4.746-2.555,9.172-7.301,9.886l-44.963,6.765
		C152.703,124.018,152.268,124.05,151.838,124.05z"/>
</g>
</svg>
